<?xml version="1.0" encoding="UTF-8" standalone="no"?>
<!DOCTYPE svg PUBLIC "-//W3C//DTD SVG 1.1//EN" "http://www.w3.org/Graphics/SVG/1.1/DTD/svg11.dtd">
<svg width="100%" height="100%" viewBox="0 0 928 1044" version="1.1" xmlns="http://www.w3.org/2000/svg" xmlns:xlink="http://www.w3.org/1999/xlink" xml:space="preserve" xmlns:serif="http://www.serif.com/" style="fill-rule:evenodd;clip-rule:evenodd;stroke-linecap:round;stroke-linejoin:round;stroke-miterlimit:1.5;">
    <g id="splash" transform="matrix(0.530421,0,0,0.420751,0,0)">
        <rect x="0" y="0" width="1748.03" height="2480.32" style="fill:none;"/>
        <g transform="matrix(6.38948,0,0,8.05492,-2205.2,-5974.03)">
            <g transform="matrix(49.177,0,0,49.177,374.754,785.108)">
                <path d="M0.18,-0.682L0.18,-0.392L0.183,-0.392C0.222,-0.441 0.269,-0.465 0.323,-0.465C0.372,-0.465 0.411,-0.449 0.44,-0.417C0.47,-0.385 0.485,-0.343 0.485,-0.292L0.485,-0L0.365,-0L0.365,-0.269C0.365,-0.3 0.358,-0.324 0.344,-0.342C0.329,-0.36 0.309,-0.369 0.284,-0.369C0.266,-0.369 0.249,-0.364 0.233,-0.354C0.217,-0.343 0.199,-0.326 0.18,-0.302L0.18,-0L0.06,-0L0.06,-0.682L0.18,-0.682Z" style="fill:rgb(235,153,115);fill-rule:nonzero;"/>
            </g>
            <g transform="matrix(49.177,0,0,49.177,401.359,785.108)">
                <path d="M0.176,-0.456L0.176,-0.174C0.176,-0.144 0.183,-0.122 0.198,-0.106C0.213,-0.091 0.232,-0.083 0.257,-0.083C0.277,-0.083 0.296,-0.089 0.315,-0.102C0.333,-0.114 0.348,-0.131 0.36,-0.154L0.36,-0.456L0.48,-0.456L0.48,-0L0.36,-0L0.36,-0.062C0.317,-0.015 0.27,0.009 0.219,0.009C0.17,0.009 0.131,-0.007 0.101,-0.039C0.071,-0.071 0.056,-0.113 0.056,-0.164L0.056,-0.456L0.176,-0.456Z" style="fill:rgb(99,184,169);fill-rule:nonzero;"/>
            </g>
            <g transform="matrix(49.177,0,0,49.177,427.917,785.108)">
                <path d="M0.264,-0.465C0.331,-0.465 0.384,-0.443 0.423,-0.4C0.462,-0.357 0.482,-0.298 0.482,-0.222L0.482,-0.204L0.159,-0.204C0.164,-0.163 0.179,-0.132 0.205,-0.11C0.23,-0.088 0.265,-0.077 0.31,-0.077C0.339,-0.077 0.366,-0.082 0.393,-0.092C0.419,-0.102 0.447,-0.117 0.475,-0.137L0.475,-0.048C0.422,-0.01 0.357,0.009 0.281,0.009C0.209,0.009 0.15,-0.013 0.104,-0.056C0.059,-0.099 0.036,-0.157 0.036,-0.229C0.036,-0.298 0.057,-0.355 0.099,-0.399C0.142,-0.443 0.196,-0.465 0.264,-0.465ZM0.369,-0.277C0.366,-0.31 0.356,-0.336 0.339,-0.355C0.322,-0.373 0.299,-0.383 0.269,-0.383C0.239,-0.383 0.214,-0.374 0.196,-0.356C0.178,-0.338 0.166,-0.312 0.161,-0.277L0.369,-0.277Z" style="fill:rgb(203,136,159);fill-rule:nonzero;"/>
            </g>
            <g transform="matrix(49.177,0,0,49.177,453.298,785.108)">
                <path d="M0.18,-0.682L0.18,-0.427C0.216,-0.452 0.256,-0.465 0.301,-0.465C0.341,-0.465 0.377,-0.455 0.41,-0.435C0.443,-0.416 0.468,-0.388 0.486,-0.352C0.504,-0.317 0.513,-0.277 0.513,-0.233C0.513,-0.158 0.491,-0.099 0.446,-0.056C0.402,-0.013 0.341,0.009 0.263,0.009C0.194,0.009 0.126,-0.004 0.06,-0.03L0.06,-0.682L0.18,-0.682ZM0.18,-0.095C0.206,-0.086 0.236,-0.082 0.27,-0.082C0.307,-0.082 0.336,-0.095 0.358,-0.122C0.379,-0.149 0.39,-0.186 0.39,-0.234C0.39,-0.277 0.379,-0.311 0.357,-0.337C0.336,-0.362 0.307,-0.375 0.271,-0.375C0.254,-0.375 0.239,-0.372 0.225,-0.366C0.211,-0.36 0.196,-0.35 0.18,-0.337L0.18,-0.095Z" style="fill:rgb(232,198,60);fill-rule:nonzero;"/>
            </g>
            <g transform="matrix(49.177,0,0,49.177,480.288,785.108)">
                <path d="M0.124,-0.667C0.143,-0.667 0.159,-0.66 0.172,-0.647C0.185,-0.634 0.192,-0.618 0.192,-0.599C0.192,-0.581 0.185,-0.565 0.172,-0.552C0.159,-0.538 0.143,-0.531 0.124,-0.531C0.106,-0.531 0.09,-0.538 0.076,-0.552C0.063,-0.565 0.056,-0.581 0.056,-0.599C0.056,-0.618 0.063,-0.634 0.077,-0.647C0.09,-0.66 0.106,-0.667 0.124,-0.667ZM0.184,-0.456L0.184,-0L0.064,-0L0.064,-0.456L0.184,-0.456Z" style="fill:rgb(168,132,186);fill-rule:nonzero;"/>
            </g>
            <g transform="matrix(49.177,0,0,49.177,492.486,785.108)">
                <path d="M0.368,-0.446L0.368,-0.682L0.488,-0.682L0.488,-0L0.277,-0C0.204,-0 0.146,-0.021 0.102,-0.063C0.058,-0.105 0.036,-0.162 0.036,-0.235C0.036,-0.278 0.046,-0.317 0.067,-0.352C0.087,-0.387 0.115,-0.415 0.151,-0.435C0.186,-0.455 0.225,-0.465 0.266,-0.465C0.298,-0.465 0.332,-0.458 0.368,-0.446ZM0.305,-0.092L0.368,-0.092L0.368,-0.356C0.343,-0.369 0.318,-0.375 0.291,-0.375C0.251,-0.375 0.219,-0.362 0.195,-0.337C0.171,-0.312 0.159,-0.279 0.159,-0.239C0.159,-0.141 0.208,-0.092 0.305,-0.092Z" style="fill:rgb(123,204,133);fill-rule:nonzero;"/>
            </g>
            <g transform="matrix(49.177,0,0,49.177,519.428,785.108)">
                <path d="M0.286,-0.465C0.334,-0.465 0.377,-0.455 0.416,-0.435C0.454,-0.415 0.484,-0.387 0.505,-0.352C0.527,-0.316 0.537,-0.275 0.537,-0.23C0.537,-0.183 0.527,-0.141 0.507,-0.106C0.486,-0.07 0.456,-0.042 0.417,-0.022C0.377,-0.001 0.334,0.009 0.286,0.009C0.238,0.009 0.195,-0.001 0.156,-0.022C0.117,-0.042 0.087,-0.07 0.067,-0.106C0.046,-0.141 0.036,-0.183 0.036,-0.23C0.036,-0.276 0.047,-0.317 0.068,-0.352C0.09,-0.388 0.12,-0.416 0.158,-0.435C0.197,-0.455 0.239,-0.465 0.286,-0.465ZM0.162,-0.23C0.162,-0.184 0.173,-0.148 0.196,-0.121C0.218,-0.094 0.248,-0.08 0.285,-0.08C0.324,-0.08 0.355,-0.093 0.377,-0.119C0.4,-0.145 0.411,-0.182 0.411,-0.231C0.411,-0.277 0.4,-0.313 0.377,-0.338C0.355,-0.363 0.324,-0.376 0.285,-0.376C0.249,-0.376 0.219,-0.363 0.196,-0.336C0.174,-0.309 0.162,-0.274 0.162,-0.23Z" style="fill:rgb(203,136,159);fill-rule:nonzero;"/>
            </g>
            <g transform="matrix(49.177,0,0,49.177,547.618,785.108)">
                <path d="M0.286,-0.465C0.334,-0.465 0.377,-0.455 0.416,-0.435C0.454,-0.415 0.484,-0.387 0.505,-0.352C0.527,-0.316 0.537,-0.275 0.537,-0.23C0.537,-0.183 0.527,-0.141 0.507,-0.106C0.486,-0.07 0.456,-0.042 0.417,-0.022C0.377,-0.001 0.334,0.009 0.286,0.009C0.238,0.009 0.195,-0.001 0.156,-0.022C0.117,-0.042 0.087,-0.07 0.067,-0.106C0.046,-0.141 0.036,-0.183 0.036,-0.23C0.036,-0.276 0.047,-0.317 0.068,-0.352C0.09,-0.388 0.12,-0.416 0.158,-0.435C0.197,-0.455 0.239,-0.465 0.286,-0.465ZM0.162,-0.23C0.162,-0.184 0.173,-0.148 0.196,-0.121C0.218,-0.094 0.248,-0.08 0.285,-0.08C0.324,-0.08 0.355,-0.093 0.377,-0.119C0.4,-0.145 0.411,-0.182 0.411,-0.231C0.411,-0.277 0.4,-0.313 0.377,-0.338C0.355,-0.363 0.324,-0.376 0.285,-0.376C0.249,-0.376 0.219,-0.363 0.196,-0.336C0.174,-0.309 0.162,-0.274 0.162,-0.23Z" style="fill:rgb(124,145,199);fill-rule:nonzero;"/>
            </g>
            <g transform="matrix(49.177,0,0,49.177,575.808,785.108)">
                <path d="M0.136,-0.691C0.183,-0.691 0.206,-0.649 0.206,-0.564C0.206,-0.518 0.2,-0.454 0.188,-0.371C0.175,-0.288 0.165,-0.238 0.157,-0.221C0.152,-0.21 0.145,-0.204 0.136,-0.204C0.126,-0.204 0.119,-0.209 0.114,-0.219C0.107,-0.232 0.097,-0.278 0.084,-0.359C0.071,-0.439 0.065,-0.508 0.064,-0.564C0.064,-0.649 0.088,-0.691 0.136,-0.691ZM0.135,-0.141C0.154,-0.141 0.172,-0.133 0.187,-0.118C0.202,-0.103 0.21,-0.085 0.21,-0.066C0.21,-0.046 0.202,-0.029 0.188,-0.014C0.173,0.001 0.155,0.009 0.135,0.009C0.114,0.009 0.097,0.001 0.082,-0.013C0.067,-0.028 0.06,-0.046 0.06,-0.066C0.06,-0.086 0.068,-0.104 0.083,-0.119C0.097,-0.134 0.115,-0.141 0.135,-0.141Z" style="fill:rgb(162,214,92);fill-rule:nonzero;"/>
            </g>
        </g>
        <g transform="matrix(2.94891,0,0,3.71755,-1215.38,-3172.26)">
            <g transform="matrix(47.9489,0,0,47.9489,484.452,1026.51)">
                <path d="M0.244,-0.286L0.17,-0.331C0.123,-0.359 0.09,-0.387 0.071,-0.415C0.051,-0.442 0.041,-0.474 0.041,-0.51C0.041,-0.563 0.06,-0.607 0.097,-0.641C0.134,-0.674 0.183,-0.691 0.242,-0.691C0.299,-0.691 0.351,-0.675 0.399,-0.643L0.399,-0.532C0.35,-0.579 0.297,-0.603 0.24,-0.603C0.208,-0.603 0.182,-0.596 0.162,-0.581C0.141,-0.566 0.131,-0.547 0.131,-0.524C0.131,-0.503 0.138,-0.484 0.153,-0.466C0.168,-0.448 0.193,-0.43 0.226,-0.41L0.301,-0.366C0.384,-0.317 0.426,-0.254 0.426,-0.177C0.426,-0.122 0.407,-0.078 0.371,-0.043C0.334,-0.009 0.287,0.008 0.228,0.008C0.161,0.008 0.099,-0.013 0.044,-0.054L0.044,-0.178C0.097,-0.111 0.158,-0.078 0.227,-0.078C0.258,-0.078 0.283,-0.087 0.303,-0.104C0.324,-0.121 0.334,-0.142 0.334,-0.168C0.334,-0.21 0.304,-0.249 0.244,-0.286Z" style="fill:rgb(128,128,128);fill-rule:nonzero;"/>
            </g>
            <g transform="matrix(47.9489,0,0,47.9489,506.413,1026.51)">
                <path d="M0.446,-0.217L0.13,-0.217C0.132,-0.174 0.147,-0.14 0.173,-0.114C0.2,-0.089 0.234,-0.076 0.276,-0.076C0.334,-0.076 0.389,-0.094 0.438,-0.131L0.438,-0.044C0.411,-0.026 0.384,-0.013 0.357,-0.005C0.33,0.003 0.298,0.007 0.262,0.007C0.213,0.007 0.173,-0.003 0.142,-0.024C0.111,-0.044 0.087,-0.072 0.069,-0.107C0.05,-0.141 0.041,-0.181 0.041,-0.227C0.041,-0.295 0.06,-0.351 0.099,-0.394C0.138,-0.437 0.188,-0.458 0.25,-0.458C0.31,-0.458 0.357,-0.437 0.393,-0.396C0.428,-0.354 0.446,-0.298 0.446,-0.228L0.446,-0.217ZM0.132,-0.27L0.358,-0.27C0.356,-0.306 0.345,-0.333 0.326,-0.352C0.307,-0.371 0.282,-0.381 0.25,-0.381C0.218,-0.381 0.192,-0.371 0.172,-0.352C0.151,-0.333 0.138,-0.306 0.132,-0.27Z" style="fill:rgb(128,128,128);fill-rule:nonzero;"/>
            </g>
            <g transform="matrix(47.9489,0,0,47.9489,529.38,1026.51)">
                <rect x="0.065" y="-0.682" width="0.089" height="0.682" style="fill:rgb(128,128,128);fill-rule:nonzero;"/>
            </g>
            <g transform="matrix(47.9489,0,0,47.9489,539.893,1026.51)">
                <path d="M0.446,-0.217L0.13,-0.217C0.132,-0.174 0.147,-0.14 0.173,-0.114C0.2,-0.089 0.234,-0.076 0.276,-0.076C0.334,-0.076 0.389,-0.094 0.438,-0.131L0.438,-0.044C0.411,-0.026 0.384,-0.013 0.357,-0.005C0.33,0.003 0.298,0.007 0.262,0.007C0.213,0.007 0.173,-0.003 0.142,-0.024C0.111,-0.044 0.087,-0.072 0.069,-0.107C0.05,-0.141 0.041,-0.181 0.041,-0.227C0.041,-0.295 0.06,-0.351 0.099,-0.394C0.138,-0.437 0.188,-0.458 0.25,-0.458C0.31,-0.458 0.357,-0.437 0.393,-0.396C0.428,-0.354 0.446,-0.298 0.446,-0.228L0.446,-0.217ZM0.132,-0.27L0.358,-0.27C0.356,-0.306 0.345,-0.333 0.326,-0.352C0.307,-0.371 0.282,-0.381 0.25,-0.381C0.218,-0.381 0.192,-0.371 0.172,-0.352C0.151,-0.333 0.138,-0.306 0.132,-0.27Z" style="fill:rgb(128,128,128);fill-rule:nonzero;"/>
            </g>
            <g transform="matrix(47.9489,0,0,47.9489,562.86,1026.51)">
                <path d="M0.4,-0.105L0.4,-0.017C0.355,-0 0.312,0.008 0.269,0.008C0.199,0.008 0.143,-0.013 0.101,-0.055C0.059,-0.096 0.038,-0.152 0.038,-0.222C0.038,-0.293 0.058,-0.35 0.099,-0.393C0.14,-0.436 0.193,-0.458 0.26,-0.458C0.283,-0.458 0.304,-0.456 0.322,-0.451C0.34,-0.447 0.363,-0.439 0.39,-0.427L0.39,-0.332C0.345,-0.361 0.304,-0.375 0.265,-0.375C0.225,-0.375 0.192,-0.361 0.167,-0.333C0.141,-0.305 0.128,-0.269 0.128,-0.225C0.128,-0.179 0.142,-0.143 0.17,-0.116C0.198,-0.089 0.235,-0.075 0.282,-0.075C0.316,-0.075 0.356,-0.085 0.4,-0.105Z" style="fill:rgb(128,128,128);fill-rule:nonzero;"/>
            </g>
            <g transform="matrix(47.9489,0,0,47.9489,583.861,1026.51)">
                <path d="M0,-0.378L0.167,-0.542L0.167,-0.449L0.309,-0.449L0.309,-0.369L0.167,-0.369L0.167,-0.149C0.167,-0.097 0.188,-0.072 0.231,-0.072C0.263,-0.072 0.297,-0.083 0.332,-0.104L0.332,-0.021C0.298,-0.002 0.261,0.008 0.22,0.008C0.18,0.008 0.146,-0.004 0.119,-0.028C0.11,-0.035 0.103,-0.043 0.098,-0.052C0.092,-0.061 0.087,-0.073 0.084,-0.087C0.08,-0.102 0.078,-0.129 0.078,-0.17L0.078,-0.369L0,-0.369L0,-0.378Z" style="fill:rgb(128,128,128);fill-rule:nonzero;"/>
            </g>
            <g transform="matrix(47.9489,0,0,47.9489,613.151,1026.51)">
                <path d="M0,-0.378L0.167,-0.542L0.167,-0.449L0.309,-0.449L0.309,-0.369L0.167,-0.369L0.167,-0.149C0.167,-0.097 0.188,-0.072 0.231,-0.072C0.263,-0.072 0.297,-0.083 0.332,-0.104L0.332,-0.021C0.298,-0.002 0.261,0.008 0.22,0.008C0.18,0.008 0.146,-0.004 0.119,-0.028C0.11,-0.035 0.103,-0.043 0.098,-0.052C0.092,-0.061 0.087,-0.073 0.084,-0.087C0.08,-0.102 0.078,-0.129 0.078,-0.17L0.078,-0.369L0,-0.369L0,-0.378Z" style="fill:rgb(128,128,128);fill-rule:nonzero;"/>
            </g>
            <g transform="matrix(47.9489,0,0,47.9489,629.118,1026.51)">
                <path d="M0.061,-0.682L0.15,-0.682L0.15,-0.39C0.187,-0.435 0.233,-0.458 0.288,-0.458C0.318,-0.458 0.345,-0.451 0.369,-0.436C0.392,-0.421 0.41,-0.4 0.422,-0.374C0.433,-0.347 0.439,-0.308 0.439,-0.256L0.439,-0L0.35,-0L0.35,-0.278C0.35,-0.311 0.342,-0.337 0.326,-0.357C0.31,-0.377 0.289,-0.387 0.262,-0.387C0.243,-0.387 0.224,-0.382 0.207,-0.372C0.19,-0.362 0.171,-0.345 0.15,-0.322L0.15,-0L0.061,-0L0.061,-0.682Z" style="fill:rgb(128,128,128);fill-rule:nonzero;"/>
            </g>
            <g transform="matrix(47.9489,0,0,47.9489,653.092,1026.51)">
                <path d="M0.446,-0.217L0.13,-0.217C0.132,-0.174 0.147,-0.14 0.173,-0.114C0.2,-0.089 0.234,-0.076 0.276,-0.076C0.334,-0.076 0.389,-0.094 0.438,-0.131L0.438,-0.044C0.411,-0.026 0.384,-0.013 0.357,-0.005C0.33,0.003 0.298,0.007 0.262,0.007C0.213,0.007 0.173,-0.003 0.142,-0.024C0.111,-0.044 0.087,-0.072 0.069,-0.107C0.05,-0.141 0.041,-0.181 0.041,-0.227C0.041,-0.295 0.06,-0.351 0.099,-0.394C0.138,-0.437 0.188,-0.458 0.25,-0.458C0.31,-0.458 0.357,-0.437 0.393,-0.396C0.428,-0.354 0.446,-0.298 0.446,-0.228L0.446,-0.217ZM0.132,-0.27L0.358,-0.27C0.356,-0.306 0.345,-0.333 0.326,-0.352C0.307,-0.371 0.282,-0.381 0.25,-0.381C0.218,-0.381 0.192,-0.371 0.172,-0.352C0.151,-0.333 0.138,-0.306 0.132,-0.27Z" style="fill:rgb(128,128,128);fill-rule:nonzero;"/>
            </g>
            <g transform="matrix(47.9489,0,0,47.9489,689.382,1026.51)">
                <path d="M0.278,-0.45C0.346,-0.45 0.403,-0.428 0.448,-0.384C0.493,-0.34 0.516,-0.285 0.516,-0.218C0.516,-0.153 0.493,-0.099 0.447,-0.056C0.401,-0.014 0.344,0.008 0.274,0.008C0.207,0.008 0.15,-0.014 0.105,-0.057C0.06,-0.101 0.037,-0.155 0.037,-0.22C0.037,-0.286 0.06,-0.341 0.106,-0.385C0.151,-0.428 0.209,-0.45 0.278,-0.45ZM0.273,-0.37C0.23,-0.37 0.195,-0.356 0.168,-0.328C0.141,-0.3 0.127,-0.264 0.127,-0.221C0.127,-0.178 0.141,-0.143 0.169,-0.116C0.197,-0.089 0.233,-0.075 0.277,-0.075C0.32,-0.075 0.356,-0.089 0.384,-0.116C0.412,-0.144 0.426,-0.179 0.426,-0.222C0.426,-0.265 0.411,-0.3 0.382,-0.328C0.353,-0.356 0.317,-0.37 0.273,-0.37Z" style="fill:rgb(128,128,128);fill-rule:nonzero;"/>
            </g>
            <g transform="matrix(47.9489,0,0,47.9489,715.838,1026.51)">
                <path d="M0.363,-0.682L0.452,-0.682L0.452,-0L0.262,-0C0.196,-0 0.143,-0.021 0.103,-0.063C0.064,-0.105 0.044,-0.161 0.044,-0.232C0.044,-0.298 0.065,-0.352 0.106,-0.395C0.148,-0.438 0.201,-0.459 0.265,-0.459C0.295,-0.459 0.328,-0.453 0.363,-0.44L0.363,-0.682ZM0.363,-0.076L0.363,-0.361C0.335,-0.375 0.307,-0.382 0.279,-0.382C0.235,-0.382 0.199,-0.367 0.173,-0.338C0.147,-0.309 0.134,-0.27 0.134,-0.221C0.134,-0.175 0.145,-0.139 0.168,-0.114C0.182,-0.099 0.196,-0.089 0.211,-0.084C0.227,-0.079 0.254,-0.076 0.294,-0.076L0.363,-0.076Z" style="fill:rgb(128,128,128);fill-rule:nonzero;"/>
            </g>
            <g transform="matrix(47.9489,0,0,47.9489,739.812,1026.51)">
                <path d="M0.363,-0.682L0.452,-0.682L0.452,-0L0.262,-0C0.196,-0 0.143,-0.021 0.103,-0.063C0.064,-0.105 0.044,-0.161 0.044,-0.232C0.044,-0.298 0.065,-0.352 0.106,-0.395C0.148,-0.438 0.201,-0.459 0.265,-0.459C0.295,-0.459 0.328,-0.453 0.363,-0.44L0.363,-0.682ZM0.363,-0.076L0.363,-0.361C0.335,-0.375 0.307,-0.382 0.279,-0.382C0.235,-0.382 0.199,-0.367 0.173,-0.338C0.147,-0.309 0.134,-0.27 0.134,-0.221C0.134,-0.175 0.145,-0.139 0.168,-0.114C0.182,-0.099 0.196,-0.089 0.211,-0.084C0.227,-0.079 0.254,-0.076 0.294,-0.076L0.363,-0.076Z" style="fill:rgb(128,128,128);fill-rule:nonzero;"/>
            </g>
            <g transform="matrix(47.9489,0,0,47.9489,777.577,1026.51)">
                <path d="M0.278,-0.45C0.346,-0.45 0.403,-0.428 0.448,-0.384C0.493,-0.34 0.516,-0.285 0.516,-0.218C0.516,-0.153 0.493,-0.099 0.447,-0.056C0.401,-0.014 0.344,0.008 0.274,0.008C0.207,0.008 0.15,-0.014 0.105,-0.057C0.06,-0.101 0.037,-0.155 0.037,-0.22C0.037,-0.286 0.06,-0.341 0.106,-0.385C0.151,-0.428 0.209,-0.45 0.278,-0.45ZM0.273,-0.37C0.23,-0.37 0.195,-0.356 0.168,-0.328C0.141,-0.3 0.127,-0.264 0.127,-0.221C0.127,-0.178 0.141,-0.143 0.169,-0.116C0.197,-0.089 0.233,-0.075 0.277,-0.075C0.32,-0.075 0.356,-0.089 0.384,-0.116C0.412,-0.144 0.426,-0.179 0.426,-0.222C0.426,-0.265 0.411,-0.3 0.382,-0.328C0.353,-0.356 0.317,-0.37 0.273,-0.37Z" style="fill:rgb(128,128,128);fill-rule:nonzero;"/>
            </g>
            <g transform="matrix(47.9489,0,0,47.9489,804.033,1026.51)">
                <path d="M0.152,-0.449L0.152,-0.392C0.192,-0.436 0.237,-0.458 0.287,-0.458C0.315,-0.458 0.341,-0.451 0.365,-0.436C0.389,-0.422 0.408,-0.402 0.42,-0.377C0.433,-0.351 0.439,-0.312 0.439,-0.257L0.439,-0L0.35,-0L0.35,-0.256C0.35,-0.302 0.343,-0.335 0.329,-0.354C0.315,-0.374 0.292,-0.384 0.259,-0.384C0.217,-0.384 0.181,-0.363 0.152,-0.321L0.152,-0L0.061,-0L0.061,-0.449L0.152,-0.449Z" style="fill:rgb(128,128,128);fill-rule:nonzero;"/>
            </g>
            <g transform="matrix(47.9489,0,0,47.9489,828.008,1026.51)">
                <path d="M0.446,-0.217L0.13,-0.217C0.132,-0.174 0.147,-0.14 0.173,-0.114C0.2,-0.089 0.234,-0.076 0.276,-0.076C0.334,-0.076 0.389,-0.094 0.438,-0.131L0.438,-0.044C0.411,-0.026 0.384,-0.013 0.357,-0.005C0.33,0.003 0.298,0.007 0.262,0.007C0.213,0.007 0.173,-0.003 0.142,-0.024C0.111,-0.044 0.087,-0.072 0.069,-0.107C0.05,-0.141 0.041,-0.181 0.041,-0.227C0.041,-0.295 0.06,-0.351 0.099,-0.394C0.138,-0.437 0.188,-0.458 0.25,-0.458C0.31,-0.458 0.357,-0.437 0.393,-0.396C0.428,-0.354 0.446,-0.298 0.446,-0.228L0.446,-0.217ZM0.132,-0.27L0.358,-0.27C0.356,-0.306 0.345,-0.333 0.326,-0.352C0.307,-0.371 0.282,-0.381 0.25,-0.381C0.218,-0.381 0.192,-0.371 0.172,-0.352C0.151,-0.333 0.138,-0.306 0.132,-0.27Z" style="fill:rgb(128,128,128);fill-rule:nonzero;"/>
            </g>
            <g transform="matrix(47.9489,0,0,47.9489,864.297,1026.51)">
                <path d="M0.278,-0.45C0.346,-0.45 0.403,-0.428 0.448,-0.384C0.493,-0.34 0.516,-0.285 0.516,-0.218C0.516,-0.153 0.493,-0.099 0.447,-0.056C0.401,-0.014 0.344,0.008 0.274,0.008C0.207,0.008 0.15,-0.014 0.105,-0.057C0.06,-0.101 0.037,-0.155 0.037,-0.22C0.037,-0.286 0.06,-0.341 0.106,-0.385C0.151,-0.428 0.209,-0.45 0.278,-0.45ZM0.273,-0.37C0.23,-0.37 0.195,-0.356 0.168,-0.328C0.141,-0.3 0.127,-0.264 0.127,-0.221C0.127,-0.178 0.141,-0.143 0.169,-0.116C0.197,-0.089 0.233,-0.075 0.277,-0.075C0.32,-0.075 0.356,-0.089 0.384,-0.116C0.412,-0.144 0.426,-0.179 0.426,-0.222C0.426,-0.265 0.411,-0.3 0.382,-0.328C0.353,-0.356 0.317,-0.37 0.273,-0.37Z" style="fill:rgb(128,128,128);fill-rule:nonzero;"/>
            </g>
            <g transform="matrix(47.9489,0,0,47.9489,890.753,1026.51)">
                <path d="M0.349,-0L0.349,-0.057C0.33,-0.037 0.309,-0.021 0.284,-0.009C0.26,0.002 0.236,0.008 0.212,0.008C0.184,0.008 0.157,0.001 0.134,-0.013C0.11,-0.028 0.092,-0.047 0.079,-0.071C0.067,-0.095 0.061,-0.136 0.061,-0.192L0.061,-0.449L0.15,-0.449L0.15,-0.193C0.15,-0.146 0.157,-0.113 0.17,-0.094C0.184,-0.075 0.207,-0.066 0.241,-0.066C0.284,-0.066 0.319,-0.087 0.349,-0.128L0.349,-0.449L0.438,-0.449L0.438,-0L0.349,-0Z" style="fill:rgb(128,128,128);fill-rule:nonzero;"/>
            </g>
            <g transform="matrix(47.9489,0,0,47.9489,914.728,1026.51)">
                <path d="M0,-0.378L0.167,-0.542L0.167,-0.449L0.309,-0.449L0.309,-0.369L0.167,-0.369L0.167,-0.149C0.167,-0.097 0.188,-0.072 0.231,-0.072C0.263,-0.072 0.297,-0.083 0.332,-0.104L0.332,-0.021C0.298,-0.002 0.261,0.008 0.22,0.008C0.18,0.008 0.146,-0.004 0.119,-0.028C0.11,-0.035 0.103,-0.043 0.098,-0.052C0.092,-0.061 0.087,-0.073 0.084,-0.087C0.08,-0.102 0.078,-0.129 0.078,-0.17L0.078,-0.369L0,-0.369L0,-0.378Z" style="fill:rgb(128,128,128);fill-rule:nonzero;"/>
            </g>
        </g>
        <g transform="matrix(3.21698,0,0,4.0555,-919.265,-3147.48)">
            <g transform="matrix(43.9534,0,0,43.9534,484.452,1026.51)">
                <path d="M0.078,-0L0.078,-0.682L0.249,-0.682C0.318,-0.682 0.373,-0.665 0.413,-0.631C0.454,-0.597 0.474,-0.55 0.474,-0.492C0.474,-0.452 0.464,-0.418 0.444,-0.389C0.424,-0.36 0.396,-0.339 0.359,-0.324C0.381,-0.31 0.402,-0.29 0.423,-0.266C0.444,-0.241 0.473,-0.198 0.511,-0.136C0.535,-0.097 0.554,-0.068 0.568,-0.049L0.604,-0L0.488,-0L0.458,-0.045L0.433,-0.08L0.403,-0.13L0.37,-0.183C0.35,-0.211 0.331,-0.233 0.315,-0.25C0.298,-0.267 0.283,-0.279 0.269,-0.286C0.256,-0.293 0.233,-0.297 0.201,-0.297L0.176,-0.297L0.176,-0L0.078,-0ZM0.205,-0.599L0.176,-0.599L0.176,-0.384L0.213,-0.384C0.262,-0.384 0.296,-0.388 0.315,-0.396C0.333,-0.405 0.347,-0.418 0.358,-0.435C0.368,-0.452 0.373,-0.471 0.373,-0.493C0.373,-0.515 0.367,-0.534 0.356,-0.552C0.345,-0.569 0.329,-0.581 0.308,-0.588C0.287,-0.596 0.253,-0.599 0.205,-0.599Z" style="fill:rgb(123,204,133);fill-rule:nonzero;"/>
            </g>
            <g transform="matrix(43.9534,0,0,43.9534,511,1026.51)">
                <path d="M0.278,-0.45C0.346,-0.45 0.403,-0.428 0.448,-0.384C0.493,-0.34 0.516,-0.285 0.516,-0.218C0.516,-0.153 0.493,-0.099 0.447,-0.056C0.401,-0.014 0.344,0.008 0.274,0.008C0.207,0.008 0.15,-0.014 0.105,-0.057C0.06,-0.101 0.037,-0.155 0.037,-0.22C0.037,-0.286 0.06,-0.341 0.106,-0.385C0.151,-0.428 0.209,-0.45 0.278,-0.45ZM0.273,-0.37C0.23,-0.37 0.195,-0.356 0.168,-0.328C0.141,-0.3 0.127,-0.264 0.127,-0.221C0.127,-0.178 0.141,-0.143 0.169,-0.116C0.197,-0.089 0.233,-0.075 0.277,-0.075C0.32,-0.075 0.356,-0.089 0.384,-0.116C0.412,-0.144 0.426,-0.179 0.426,-0.222C0.426,-0.265 0.411,-0.3 0.382,-0.328C0.353,-0.356 0.317,-0.37 0.273,-0.37Z" style="fill:rgb(123,204,133);fill-rule:nonzero;"/>
            </g>
            <g transform="matrix(43.9534,0,0,43.9534,535.251,1026.51)">
                <path d="M0.349,-0L0.349,-0.057C0.33,-0.037 0.309,-0.021 0.284,-0.009C0.26,0.002 0.236,0.008 0.212,0.008C0.184,0.008 0.157,0.001 0.134,-0.013C0.11,-0.028 0.092,-0.047 0.079,-0.071C0.067,-0.095 0.061,-0.136 0.061,-0.192L0.061,-0.449L0.15,-0.449L0.15,-0.193C0.15,-0.146 0.157,-0.113 0.17,-0.094C0.184,-0.075 0.207,-0.066 0.241,-0.066C0.284,-0.066 0.319,-0.087 0.349,-0.128L0.349,-0.449L0.438,-0.449L0.438,-0L0.349,-0Z" style="fill:rgb(123,204,133);fill-rule:nonzero;"/>
            </g>
            <g transform="matrix(43.9534,0,0,43.9534,557.228,1026.51)">
                <path d="M0.152,-0.449L0.152,-0.392C0.192,-0.436 0.237,-0.458 0.287,-0.458C0.315,-0.458 0.341,-0.451 0.365,-0.436C0.389,-0.422 0.408,-0.402 0.42,-0.377C0.433,-0.351 0.439,-0.312 0.439,-0.257L0.439,-0L0.35,-0L0.35,-0.256C0.35,-0.302 0.343,-0.335 0.329,-0.354C0.315,-0.374 0.292,-0.384 0.259,-0.384C0.217,-0.384 0.181,-0.363 0.152,-0.321L0.152,-0L0.061,-0L0.061,-0.449L0.152,-0.449Z" style="fill:rgb(123,204,133);fill-rule:nonzero;"/>
            </g>
            <g transform="matrix(43.9534,0,0,43.9534,579.205,1026.51)">
                <path d="M0.363,-0.682L0.452,-0.682L0.452,-0L0.262,-0C0.196,-0 0.143,-0.021 0.103,-0.063C0.064,-0.105 0.044,-0.161 0.044,-0.232C0.044,-0.298 0.065,-0.352 0.106,-0.395C0.148,-0.438 0.201,-0.459 0.265,-0.459C0.295,-0.459 0.328,-0.453 0.363,-0.44L0.363,-0.682ZM0.363,-0.076L0.363,-0.361C0.335,-0.375 0.307,-0.382 0.279,-0.382C0.235,-0.382 0.199,-0.367 0.173,-0.338C0.147,-0.309 0.134,-0.27 0.134,-0.221C0.134,-0.175 0.145,-0.139 0.168,-0.114C0.182,-0.099 0.196,-0.089 0.211,-0.084C0.227,-0.079 0.254,-0.076 0.294,-0.076L0.363,-0.076Z" style="fill:rgb(123,204,133);fill-rule:nonzero;"/>
            </g>
            <g transform="matrix(43.9534,0,0,43.9534,613.822,1026.51)">
                <rect x="0.202" y="-0.682" width="0.098" height="0.682" style="fill:rgb(123,204,133);fill-rule:nonzero;"/>
            </g>
        </g>
        <g transform="matrix(1,0,0,0.832442,2.74069,-251.881)">
            <g transform="matrix(0.963012,0,0,1.45839,-8.82617,-49.4791)">
                <g transform="matrix(271.84,0,0,271.84,824.572,1515.94)">
                    <path d="M0.08,-0.82L0.808,-0.4L0.08,0.02L0.08,-0.82Z" style="fill:rgb(128,128,128);fill-rule:nonzero;"/>
                </g>
            </g>
            <g transform="matrix(1.52298,0,0,2.30641,144.427,-646.077)">
                <circle cx="477.253" cy="1148.49" r="120.397" style="fill:none;stroke:rgb(128,128,128);stroke-width:20.63px;"/>
            </g>
        </g>
        <g transform="matrix(1.88529,0,0,2.3767,-203.746,-28.9638)">
            <g transform="matrix(41.6667,0,0,41.6667,481.508,892.279)">
                <path d="M0.379,-0.436L0.379,-0.383C0.336,-0.402 0.297,-0.411 0.262,-0.411C0.212,-0.411 0.171,-0.394 0.14,-0.359C0.108,-0.324 0.093,-0.279 0.093,-0.223C0.093,-0.167 0.108,-0.122 0.14,-0.088C0.171,-0.055 0.213,-0.038 0.266,-0.038C0.305,-0.038 0.345,-0.047 0.387,-0.064L0.387,-0.014C0.342,0.001 0.301,0.009 0.262,0.009C0.196,0.009 0.143,-0.012 0.103,-0.054C0.062,-0.095 0.042,-0.15 0.042,-0.218C0.042,-0.288 0.062,-0.346 0.103,-0.391C0.144,-0.436 0.196,-0.458 0.26,-0.458C0.295,-0.458 0.334,-0.451 0.379,-0.436Z" style="fill:rgb(126,126,126);fill-rule:nonzero;"/>
            </g>
            <g transform="matrix(41.6667,0,0,41.6667,498.883,892.279)">
                <path d="M0.373,-0.405L0.345,-0.36C0.308,-0.394 0.278,-0.411 0.255,-0.411C0.21,-0.411 0.162,-0.368 0.111,-0.282L0.111,-0L0.063,-0L0.063,-0.449L0.111,-0.449L0.111,-0.331L0.113,-0.331C0.167,-0.416 0.219,-0.458 0.27,-0.458C0.299,-0.458 0.334,-0.44 0.373,-0.405Z" style="fill:rgb(126,126,126);fill-rule:nonzero;"/>
            </g>
            <g transform="matrix(41.6667,0,0,41.6667,512.758,892.279)">
                <path d="M0.445,-0.241L0.091,-0.241C0.09,-0.233 0.089,-0.226 0.089,-0.218C0.089,-0.168 0.107,-0.125 0.143,-0.09C0.179,-0.056 0.221,-0.038 0.27,-0.038C0.327,-0.038 0.383,-0.06 0.437,-0.105L0.437,-0.051C0.386,-0.011 0.328,0.009 0.264,0.009C0.199,0.009 0.146,-0.014 0.104,-0.059C0.061,-0.104 0.04,-0.161 0.04,-0.23C0.04,-0.296 0.06,-0.35 0.099,-0.393C0.138,-0.436 0.187,-0.458 0.246,-0.458C0.302,-0.458 0.349,-0.439 0.387,-0.4C0.426,-0.361 0.445,-0.308 0.445,-0.241ZM0.097,-0.28L0.388,-0.28C0.371,-0.367 0.324,-0.411 0.246,-0.411C0.209,-0.411 0.177,-0.4 0.151,-0.377C0.124,-0.354 0.106,-0.321 0.097,-0.28Z" style="fill:rgb(126,126,126);fill-rule:nonzero;"/>
            </g>
            <g transform="matrix(41.6667,0,0,41.6667,532.717,892.279)">
                <path d="M0.421,-0.078L0.421,-0.038C0.38,-0.007 0.349,0.009 0.33,0.009C0.319,0.009 0.311,0.005 0.307,-0.002C0.303,-0.01 0.3,-0.024 0.298,-0.047C0.251,-0.01 0.204,0.009 0.157,0.009C0.123,0.009 0.095,-0.002 0.071,-0.024C0.048,-0.047 0.036,-0.073 0.036,-0.105C0.036,-0.154 0.059,-0.192 0.104,-0.22C0.149,-0.249 0.214,-0.265 0.298,-0.269L0.298,-0.326C0.298,-0.387 0.265,-0.418 0.198,-0.418C0.156,-0.418 0.11,-0.399 0.061,-0.361L0.061,-0.41C0.112,-0.442 0.16,-0.458 0.206,-0.458C0.247,-0.458 0.28,-0.448 0.307,-0.428C0.333,-0.408 0.346,-0.379 0.346,-0.341L0.346,-0.061C0.346,-0.046 0.35,-0.038 0.357,-0.038C0.366,-0.038 0.387,-0.051 0.421,-0.078ZM0.298,-0.089L0.298,-0.229C0.236,-0.231 0.185,-0.22 0.145,-0.197C0.104,-0.173 0.084,-0.142 0.084,-0.105C0.084,-0.084 0.092,-0.067 0.109,-0.052C0.126,-0.038 0.147,-0.031 0.173,-0.031C0.214,-0.031 0.256,-0.05 0.298,-0.089Z" style="fill:rgb(126,126,126);fill-rule:nonzero;"/>
            </g>
            <g transform="matrix(41.6667,0,0,41.6667,550.499,892.279)">
                <path d="M0.15,-0.598L0.15,-0.449L0.276,-0.449L0.276,-0.41L0.15,-0.41L0.15,-0.143C0.15,-0.1 0.153,-0.072 0.16,-0.058C0.167,-0.045 0.186,-0.038 0.217,-0.038C0.24,-0.038 0.268,-0.045 0.299,-0.06L0.299,-0.014C0.267,0.001 0.236,0.009 0.206,0.009C0.176,0.009 0.152,0 0.132,-0.017C0.112,-0.034 0.102,-0.057 0.102,-0.087L0.102,-0.41L-0.019,-0.41L-0.019,-0.449L0.102,-0.449L0.102,-0.556L0.135,-0.598L0.15,-0.598Z" style="fill:rgb(126,126,126);fill-rule:nonzero;"/>
            </g>
            <g transform="matrix(41.6667,0,0,41.6667,563.072,892.279)">
                <path d="M0.445,-0.241L0.091,-0.241C0.09,-0.233 0.089,-0.226 0.089,-0.218C0.089,-0.168 0.107,-0.125 0.143,-0.09C0.179,-0.056 0.221,-0.038 0.27,-0.038C0.327,-0.038 0.383,-0.06 0.437,-0.105L0.437,-0.051C0.386,-0.011 0.328,0.009 0.264,0.009C0.199,0.009 0.146,-0.014 0.104,-0.059C0.061,-0.104 0.04,-0.161 0.04,-0.23C0.04,-0.296 0.06,-0.35 0.099,-0.393C0.138,-0.436 0.187,-0.458 0.246,-0.458C0.302,-0.458 0.349,-0.439 0.387,-0.4C0.426,-0.361 0.445,-0.308 0.445,-0.241ZM0.097,-0.28L0.388,-0.28C0.371,-0.367 0.324,-0.411 0.246,-0.411C0.209,-0.411 0.177,-0.4 0.151,-0.377C0.124,-0.354 0.106,-0.321 0.097,-0.28Z" style="fill:rgb(126,126,126);fill-rule:nonzero;"/>
            </g>
            <g transform="matrix(41.6667,0,0,41.6667,583.03,892.279)">
                <path d="M0.449,-0.682L0.449,-0L0.401,-0L0.401,-0.035C0.36,-0.006 0.316,0.009 0.268,0.009C0.204,0.009 0.15,-0.014 0.107,-0.059C0.063,-0.104 0.041,-0.159 0.041,-0.225C0.041,-0.292 0.063,-0.347 0.106,-0.392C0.149,-0.436 0.203,-0.458 0.268,-0.458C0.309,-0.458 0.354,-0.446 0.401,-0.422L0.401,-0.682L0.449,-0.682ZM0.401,-0.079L0.401,-0.369C0.358,-0.397 0.314,-0.411 0.27,-0.411C0.218,-0.411 0.176,-0.394 0.142,-0.36C0.109,-0.325 0.092,-0.281 0.092,-0.228C0.092,-0.174 0.11,-0.128 0.146,-0.092C0.181,-0.056 0.226,-0.038 0.28,-0.038C0.321,-0.038 0.362,-0.052 0.401,-0.079Z" style="fill:rgb(126,126,126);fill-rule:nonzero;"/>
            </g>
            <g transform="matrix(41.6667,0,0,41.6667,615.847,892.279)">
                <path d="M0.062,-0.025L0.062,-0.682L0.11,-0.682L0.11,-0.385C0.158,-0.434 0.212,-0.458 0.272,-0.458C0.331,-0.458 0.379,-0.438 0.416,-0.397C0.453,-0.356 0.472,-0.303 0.472,-0.239C0.472,-0.164 0.449,-0.104 0.404,-0.059C0.358,-0.014 0.297,0.009 0.221,0.009C0.171,0.009 0.118,-0.002 0.062,-0.025ZM0.11,-0.331L0.11,-0.059C0.147,-0.045 0.184,-0.038 0.22,-0.038C0.278,-0.038 0.326,-0.057 0.364,-0.094C0.402,-0.131 0.421,-0.179 0.421,-0.236C0.421,-0.289 0.406,-0.333 0.377,-0.367C0.348,-0.401 0.311,-0.418 0.266,-0.418C0.213,-0.418 0.161,-0.389 0.11,-0.331Z" style="fill:rgb(126,126,126);fill-rule:nonzero;"/>
            </g>
            <g transform="matrix(41.6667,0,0,41.6667,637.087,892.279)">
                <path d="M0.423,-0.449L0.087,0.23L0.038,0.23L0.195,-0.087L0.006,-0.449L0.056,-0.449L0.219,-0.135L0.374,-0.449L0.423,-0.449Z" style="fill:rgb(126,126,126);fill-rule:nonzero;"/>
            </g>
            <g transform="matrix(41.6667,0,0,41.6667,654.462,892.279)">
                <path d="M0.121,-0.449L0.121,-0.352L0.056,-0.352L0.056,-0.449L0.121,-0.449ZM0.121,-0.097L0.121,-0L0.056,-0L0.056,-0.097L0.121,-0.097Z" style="fill:rgb(126,126,126);fill-rule:nonzero;"/>
            </g>
            <g transform="matrix(41.6667,0,0,41.6667,207.084,942.279)">
                <path d="M0.65,-0.633L0.65,-0.573C0.569,-0.619 0.489,-0.642 0.408,-0.642C0.322,-0.642 0.25,-0.613 0.193,-0.556C0.136,-0.499 0.107,-0.427 0.107,-0.341C0.107,-0.255 0.135,-0.183 0.192,-0.126C0.249,-0.069 0.326,-0.04 0.423,-0.04C0.493,-0.04 0.556,-0.054 0.61,-0.082L0.61,-0.266L0.466,-0.266L0.466,-0.31L0.663,-0.31L0.663,-0.049C0.583,-0.01 0.502,0.009 0.421,0.009C0.315,0.009 0.227,-0.025 0.156,-0.092C0.085,-0.159 0.05,-0.243 0.05,-0.343C0.05,-0.442 0.085,-0.525 0.154,-0.592C0.224,-0.658 0.311,-0.691 0.416,-0.691C0.488,-0.691 0.566,-0.672 0.65,-0.633Z" style="fill:rgb(126,126,126);fill-rule:nonzero;"/>
            </g>
            <g transform="matrix(41.6667,0,0,41.6667,237.053,942.279)">
                <path d="M0.445,-0.241L0.091,-0.241C0.09,-0.233 0.089,-0.226 0.089,-0.218C0.089,-0.168 0.107,-0.125 0.143,-0.09C0.179,-0.056 0.221,-0.038 0.27,-0.038C0.327,-0.038 0.383,-0.06 0.437,-0.105L0.437,-0.051C0.386,-0.011 0.328,0.009 0.264,0.009C0.199,0.009 0.146,-0.014 0.104,-0.059C0.061,-0.104 0.04,-0.161 0.04,-0.23C0.04,-0.296 0.06,-0.35 0.099,-0.393C0.138,-0.436 0.187,-0.458 0.246,-0.458C0.302,-0.458 0.349,-0.439 0.387,-0.4C0.426,-0.361 0.445,-0.308 0.445,-0.241ZM0.097,-0.28L0.388,-0.28C0.371,-0.367 0.324,-0.411 0.246,-0.411C0.209,-0.411 0.177,-0.4 0.151,-0.377C0.124,-0.354 0.106,-0.321 0.097,-0.28Z" style="fill:rgb(126,126,126);fill-rule:nonzero;"/>
            </g>
            <g transform="matrix(41.6667,0,0,41.6667,257.011,942.279)">
                <path d="M0.373,-0.405L0.345,-0.36C0.308,-0.394 0.278,-0.411 0.255,-0.411C0.21,-0.411 0.162,-0.368 0.111,-0.282L0.111,-0L0.063,-0L0.063,-0.449L0.111,-0.449L0.111,-0.331L0.113,-0.331C0.167,-0.416 0.219,-0.458 0.27,-0.458C0.299,-0.458 0.334,-0.44 0.373,-0.405Z" style="fill:rgb(126,126,126);fill-rule:nonzero;"/>
            </g>
            <g transform="matrix(41.6667,0,0,41.6667,270.886,942.279)">
                <path d="M0.421,-0.078L0.421,-0.038C0.38,-0.007 0.349,0.009 0.33,0.009C0.319,0.009 0.311,0.005 0.307,-0.002C0.303,-0.01 0.3,-0.024 0.298,-0.047C0.251,-0.01 0.204,0.009 0.157,0.009C0.123,0.009 0.095,-0.002 0.071,-0.024C0.048,-0.047 0.036,-0.073 0.036,-0.105C0.036,-0.154 0.059,-0.192 0.104,-0.22C0.149,-0.249 0.214,-0.265 0.298,-0.269L0.298,-0.326C0.298,-0.387 0.265,-0.418 0.198,-0.418C0.156,-0.418 0.11,-0.399 0.061,-0.361L0.061,-0.41C0.112,-0.442 0.16,-0.458 0.206,-0.458C0.247,-0.458 0.28,-0.448 0.307,-0.428C0.333,-0.408 0.346,-0.379 0.346,-0.341L0.346,-0.061C0.346,-0.046 0.35,-0.038 0.357,-0.038C0.366,-0.038 0.387,-0.051 0.421,-0.078ZM0.298,-0.089L0.298,-0.229C0.236,-0.231 0.185,-0.22 0.145,-0.197C0.104,-0.173 0.084,-0.142 0.084,-0.105C0.084,-0.084 0.092,-0.067 0.109,-0.052C0.126,-0.038 0.147,-0.031 0.173,-0.031C0.214,-0.031 0.256,-0.05 0.298,-0.089Z" style="fill:rgb(126,126,126);fill-rule:nonzero;"/>
            </g>
            <g transform="matrix(41.6667,0,0,41.6667,288.668,942.279)">
                <path d="M0.373,-0.405L0.345,-0.36C0.308,-0.394 0.278,-0.411 0.255,-0.411C0.21,-0.411 0.162,-0.368 0.111,-0.282L0.111,-0L0.063,-0L0.063,-0.449L0.111,-0.449L0.111,-0.331L0.113,-0.331C0.167,-0.416 0.219,-0.458 0.27,-0.458C0.299,-0.458 0.334,-0.44 0.373,-0.405Z" style="fill:rgb(126,126,126);fill-rule:nonzero;"/>
            </g>
            <g transform="matrix(41.6667,0,0,41.6667,302.543,942.279)">
                <path d="M0.449,-0.682L0.449,-0L0.401,-0L0.401,-0.035C0.36,-0.006 0.316,0.009 0.268,0.009C0.204,0.009 0.15,-0.014 0.107,-0.059C0.063,-0.104 0.041,-0.159 0.041,-0.225C0.041,-0.292 0.063,-0.347 0.106,-0.392C0.149,-0.436 0.203,-0.458 0.268,-0.458C0.309,-0.458 0.354,-0.446 0.401,-0.422L0.401,-0.682L0.449,-0.682ZM0.401,-0.079L0.401,-0.369C0.358,-0.397 0.314,-0.411 0.27,-0.411C0.218,-0.411 0.176,-0.394 0.142,-0.36C0.109,-0.325 0.092,-0.281 0.092,-0.228C0.092,-0.174 0.11,-0.128 0.146,-0.092C0.181,-0.056 0.226,-0.038 0.28,-0.038C0.321,-0.038 0.362,-0.052 0.401,-0.079Z" style="fill:rgb(126,126,126);fill-rule:nonzero;"/>
            </g>
            <g transform="matrix(41.6667,0,0,41.6667,335.36,942.279)">
                <path d="M0.64,-0.682L0.64,-0L0.587,-0L0.587,-0.323L0.132,-0.323L0.132,-0L0.079,-0L0.079,-0.682L0.132,-0.682L0.132,-0.367L0.587,-0.367L0.587,-0.682L0.64,-0.682Z" style="fill:rgb(126,126,126);fill-rule:nonzero;"/>
            </g>
            <g transform="matrix(41.6667,0,0,41.6667,365.328,942.279)">
                <path d="M0.421,-0.078L0.421,-0.038C0.38,-0.007 0.349,0.009 0.33,0.009C0.319,0.009 0.311,0.005 0.307,-0.002C0.303,-0.01 0.3,-0.024 0.298,-0.047C0.251,-0.01 0.204,0.009 0.157,0.009C0.123,0.009 0.095,-0.002 0.071,-0.024C0.048,-0.047 0.036,-0.073 0.036,-0.105C0.036,-0.154 0.059,-0.192 0.104,-0.22C0.149,-0.249 0.214,-0.265 0.298,-0.269L0.298,-0.326C0.298,-0.387 0.265,-0.418 0.198,-0.418C0.156,-0.418 0.11,-0.399 0.061,-0.361L0.061,-0.41C0.112,-0.442 0.16,-0.458 0.206,-0.458C0.247,-0.458 0.28,-0.448 0.307,-0.428C0.333,-0.408 0.346,-0.379 0.346,-0.341L0.346,-0.061C0.346,-0.046 0.35,-0.038 0.357,-0.038C0.366,-0.038 0.387,-0.051 0.421,-0.078ZM0.298,-0.089L0.298,-0.229C0.236,-0.231 0.185,-0.22 0.145,-0.197C0.104,-0.173 0.084,-0.142 0.084,-0.105C0.084,-0.084 0.092,-0.067 0.109,-0.052C0.126,-0.038 0.147,-0.031 0.173,-0.031C0.214,-0.031 0.256,-0.05 0.298,-0.089Z" style="fill:rgb(126,126,126);fill-rule:nonzero;"/>
            </g>
            <g transform="matrix(41.6667,0,0,41.6667,383.11,942.279)">
                <path d="M0.373,-0.405L0.345,-0.36C0.308,-0.394 0.278,-0.411 0.255,-0.411C0.21,-0.411 0.162,-0.368 0.111,-0.282L0.111,-0L0.063,-0L0.063,-0.449L0.111,-0.449L0.111,-0.331L0.113,-0.331C0.167,-0.416 0.219,-0.458 0.27,-0.458C0.299,-0.458 0.334,-0.44 0.373,-0.405Z" style="fill:rgb(126,126,126);fill-rule:nonzero;"/>
            </g>
            <g transform="matrix(41.6667,0,0,41.6667,396.985,942.279)">
                <path d="M0.062,-0.025L0.062,-0.682L0.11,-0.682L0.11,-0.385C0.158,-0.434 0.212,-0.458 0.272,-0.458C0.331,-0.458 0.379,-0.438 0.416,-0.397C0.453,-0.356 0.472,-0.303 0.472,-0.239C0.472,-0.164 0.449,-0.104 0.404,-0.059C0.358,-0.014 0.297,0.009 0.221,0.009C0.171,0.009 0.118,-0.002 0.062,-0.025ZM0.11,-0.331L0.11,-0.059C0.147,-0.045 0.184,-0.038 0.22,-0.038C0.278,-0.038 0.326,-0.057 0.364,-0.094C0.402,-0.131 0.421,-0.179 0.421,-0.236C0.421,-0.289 0.406,-0.333 0.377,-0.367C0.348,-0.401 0.311,-0.418 0.266,-0.418C0.213,-0.418 0.161,-0.389 0.11,-0.331Z" style="fill:rgb(126,126,126);fill-rule:nonzero;"/>
            </g>
            <g transform="matrix(41.6667,0,0,41.6667,418.225,942.279)">
                <path d="M0.445,-0.241L0.091,-0.241C0.09,-0.233 0.089,-0.226 0.089,-0.218C0.089,-0.168 0.107,-0.125 0.143,-0.09C0.179,-0.056 0.221,-0.038 0.27,-0.038C0.327,-0.038 0.383,-0.06 0.437,-0.105L0.437,-0.051C0.386,-0.011 0.328,0.009 0.264,0.009C0.199,0.009 0.146,-0.014 0.104,-0.059C0.061,-0.104 0.04,-0.161 0.04,-0.23C0.04,-0.296 0.06,-0.35 0.099,-0.393C0.138,-0.436 0.187,-0.458 0.246,-0.458C0.302,-0.458 0.349,-0.439 0.387,-0.4C0.426,-0.361 0.445,-0.308 0.445,-0.241ZM0.097,-0.28L0.388,-0.28C0.371,-0.367 0.324,-0.411 0.246,-0.411C0.209,-0.411 0.177,-0.4 0.151,-0.377C0.124,-0.354 0.106,-0.321 0.097,-0.28Z" style="fill:rgb(126,126,126);fill-rule:nonzero;"/>
            </g>
            <g transform="matrix(41.6667,0,0,41.6667,438.184,942.279)">
                <path d="M0.373,-0.405L0.345,-0.36C0.308,-0.394 0.278,-0.411 0.255,-0.411C0.21,-0.411 0.162,-0.368 0.111,-0.282L0.111,-0L0.063,-0L0.063,-0.449L0.111,-0.449L0.111,-0.331L0.113,-0.331C0.167,-0.416 0.219,-0.458 0.27,-0.458C0.299,-0.458 0.334,-0.44 0.373,-0.405Z" style="fill:rgb(126,126,126);fill-rule:nonzero;"/>
            </g>
            <g transform="matrix(41.6667,0,0,41.6667,452.059,942.279)">
                <path d="M0.309,-0.42L0.309,-0.368C0.264,-0.399 0.222,-0.414 0.186,-0.414C0.159,-0.414 0.136,-0.407 0.118,-0.392C0.099,-0.377 0.09,-0.359 0.09,-0.338C0.09,-0.323 0.095,-0.309 0.107,-0.296C0.118,-0.283 0.149,-0.267 0.2,-0.247C0.251,-0.228 0.284,-0.207 0.3,-0.186C0.315,-0.165 0.323,-0.141 0.323,-0.115C0.323,-0.08 0.309,-0.051 0.281,-0.027C0.252,-0.003 0.217,0.009 0.176,0.009C0.131,0.009 0.086,-0.005 0.041,-0.032L0.041,-0.079C0.094,-0.052 0.141,-0.038 0.182,-0.038C0.21,-0.038 0.233,-0.045 0.25,-0.06C0.268,-0.075 0.277,-0.093 0.277,-0.116C0.277,-0.132 0.271,-0.146 0.26,-0.159C0.248,-0.173 0.217,-0.189 0.166,-0.209C0.115,-0.23 0.082,-0.25 0.067,-0.269C0.052,-0.289 0.044,-0.311 0.044,-0.335C0.044,-0.369 0.058,-0.398 0.086,-0.422C0.114,-0.446 0.149,-0.458 0.189,-0.458C0.226,-0.458 0.266,-0.445 0.309,-0.42Z" style="fill:rgb(126,126,126);fill-rule:nonzero;"/>
            </g>
            <g transform="matrix(41.6667,0,0,41.6667,466.809,942.279)">
                <path d="M0.121,-0.097L0.121,-0.021C0.121,0.038 0.099,0.084 0.056,0.117L0.056,0.082C0.07,0.063 0.077,0.035 0.077,-0L0.056,-0L0.056,-0.097L0.121,-0.097Z" style="fill:rgb(126,126,126);fill-rule:nonzero;"/>
            </g>
            <g transform="matrix(41.6667,0,0,41.6667,485.75,942.279)">
                <path d="M0.135,-0.682L0.135,-0C0.135,0.075 0.121,0.127 0.092,0.156C0.064,0.184 0.03,0.199 -0.008,0.199C-0.017,0.199 -0.028,0.198 -0.04,0.197L-0.045,0.147C-0.034,0.15 -0.023,0.151 -0.014,0.151C0.05,0.151 0.082,0.105 0.082,0.014L0.082,-0.682L0.135,-0.682Z" style="fill:rgb(126,126,126);fill-rule:nonzero;"/>
            </g>
            <g transform="matrix(41.6667,0,0,41.6667,494.417,942.279)">
                <path d="M0.271,-0.458C0.336,-0.458 0.39,-0.436 0.434,-0.391C0.477,-0.347 0.499,-0.291 0.499,-0.224C0.499,-0.158 0.477,-0.102 0.434,-0.058C0.39,-0.013 0.336,0.009 0.271,0.009C0.206,0.009 0.151,-0.013 0.108,-0.058C0.064,-0.102 0.042,-0.158 0.042,-0.224C0.042,-0.291 0.064,-0.347 0.108,-0.391C0.151,-0.436 0.206,-0.458 0.271,-0.458ZM0.271,-0.038C0.321,-0.038 0.364,-0.056 0.397,-0.091C0.431,-0.126 0.448,-0.171 0.448,-0.224C0.448,-0.277 0.431,-0.322 0.397,-0.357C0.363,-0.393 0.321,-0.411 0.271,-0.411C0.22,-0.411 0.178,-0.393 0.144,-0.358C0.11,-0.322 0.093,-0.278 0.093,-0.224C0.093,-0.171 0.11,-0.126 0.144,-0.091C0.178,-0.056 0.22,-0.038 0.271,-0.038Z" style="fill:rgb(126,126,126);fill-rule:nonzero;"/>
            </g>
            <g transform="matrix(41.6667,0,0,41.6667,517,942.279)">
                <path d="M0.11,-0.449L0.11,-0.371L0.112,-0.371C0.149,-0.429 0.199,-0.458 0.26,-0.458C0.311,-0.458 0.351,-0.442 0.381,-0.409C0.412,-0.377 0.427,-0.332 0.427,-0.274L0.427,-0L0.379,-0L0.379,-0.256C0.379,-0.359 0.338,-0.411 0.257,-0.411C0.197,-0.411 0.148,-0.379 0.11,-0.315L0.11,-0L0.062,-0L0.062,-0.449L0.11,-0.449Z" style="fill:rgb(126,126,126);fill-rule:nonzero;"/>
            </g>
            <g transform="matrix(41.6667,0,0,41.6667,549.003,942.279)">
                <path d="M0.647,-0.634L0.647,-0.576C0.564,-0.62 0.483,-0.642 0.404,-0.642C0.319,-0.642 0.248,-0.613 0.191,-0.556C0.134,-0.498 0.106,-0.426 0.106,-0.34C0.106,-0.253 0.135,-0.181 0.192,-0.125C0.249,-0.068 0.322,-0.04 0.411,-0.04C0.485,-0.04 0.566,-0.063 0.654,-0.11L0.654,-0.055C0.573,-0.013 0.493,0.009 0.412,0.009C0.308,0.009 0.222,-0.024 0.153,-0.091C0.083,-0.158 0.049,-0.241 0.049,-0.34C0.049,-0.44 0.084,-0.523 0.155,-0.59C0.225,-0.657 0.31,-0.691 0.407,-0.691C0.484,-0.691 0.564,-0.672 0.647,-0.634Z" style="fill:rgb(126,126,126);fill-rule:nonzero;"/>
            </g>
            <g transform="matrix(41.6667,0,0,41.6667,577.201,942.279)">
                <path d="M0.271,-0.458C0.336,-0.458 0.39,-0.436 0.434,-0.391C0.477,-0.347 0.499,-0.291 0.499,-0.224C0.499,-0.158 0.477,-0.102 0.434,-0.058C0.39,-0.013 0.336,0.009 0.271,0.009C0.206,0.009 0.151,-0.013 0.108,-0.058C0.064,-0.102 0.042,-0.158 0.042,-0.224C0.042,-0.291 0.064,-0.347 0.108,-0.391C0.151,-0.436 0.206,-0.458 0.271,-0.458ZM0.271,-0.038C0.321,-0.038 0.364,-0.056 0.397,-0.091C0.431,-0.126 0.448,-0.171 0.448,-0.224C0.448,-0.277 0.431,-0.322 0.397,-0.357C0.363,-0.393 0.321,-0.411 0.271,-0.411C0.22,-0.411 0.178,-0.393 0.144,-0.358C0.11,-0.322 0.093,-0.278 0.093,-0.224C0.093,-0.171 0.11,-0.126 0.144,-0.091C0.178,-0.056 0.22,-0.038 0.271,-0.038Z" style="fill:rgb(126,126,126);fill-rule:nonzero;"/>
            </g>
            <g transform="matrix(41.6667,0,0,41.6667,599.784,942.279)">
                <path d="M0.379,-0L0.379,-0.074L0.377,-0.074C0.356,-0.044 0.335,-0.023 0.313,-0.01C0.291,0.002 0.263,0.009 0.229,0.009C0.181,0.009 0.141,-0.007 0.109,-0.038C0.078,-0.069 0.062,-0.114 0.062,-0.171L0.062,-0.449L0.11,-0.449L0.11,-0.172C0.11,-0.13 0.121,-0.097 0.144,-0.074C0.167,-0.05 0.196,-0.038 0.233,-0.038C0.264,-0.038 0.291,-0.045 0.313,-0.06C0.335,-0.074 0.357,-0.099 0.379,-0.134L0.379,-0.449L0.427,-0.449L0.427,-0L0.379,-0Z" style="fill:rgb(126,126,126);fill-rule:nonzero;"/>
            </g>
            <g transform="matrix(41.6667,0,0,41.6667,620.211,942.279)">
                <path d="M0.309,-0.42L0.309,-0.368C0.264,-0.399 0.222,-0.414 0.186,-0.414C0.159,-0.414 0.136,-0.407 0.118,-0.392C0.099,-0.377 0.09,-0.359 0.09,-0.338C0.09,-0.323 0.095,-0.309 0.107,-0.296C0.118,-0.283 0.149,-0.267 0.2,-0.247C0.251,-0.228 0.284,-0.207 0.3,-0.186C0.315,-0.165 0.323,-0.141 0.323,-0.115C0.323,-0.08 0.309,-0.051 0.281,-0.027C0.252,-0.003 0.217,0.009 0.176,0.009C0.131,0.009 0.086,-0.005 0.041,-0.032L0.041,-0.079C0.094,-0.052 0.141,-0.038 0.182,-0.038C0.21,-0.038 0.233,-0.045 0.25,-0.06C0.268,-0.075 0.277,-0.093 0.277,-0.116C0.277,-0.132 0.271,-0.146 0.26,-0.159C0.248,-0.173 0.217,-0.189 0.166,-0.209C0.115,-0.23 0.082,-0.25 0.067,-0.269C0.052,-0.289 0.044,-0.311 0.044,-0.335C0.044,-0.369 0.058,-0.398 0.086,-0.422C0.114,-0.446 0.149,-0.458 0.189,-0.458C0.226,-0.458 0.266,-0.445 0.309,-0.42Z" style="fill:rgb(126,126,126);fill-rule:nonzero;"/>
            </g>
            <g transform="matrix(41.6667,0,0,41.6667,634.961,942.279)">
                <path d="M0.118,-0.682L0.118,-0.6L0.07,-0.6L0.07,-0.682L0.118,-0.682ZM0.118,-0.449L0.118,-0L0.07,-0L0.07,-0.449L0.118,-0.449Z" style="fill:rgb(126,126,126);fill-rule:nonzero;"/>
            </g>
            <g transform="matrix(41.6667,0,0,41.6667,642.794,942.279)">
                <path d="M0.11,-0.449L0.11,-0.371L0.112,-0.371C0.149,-0.429 0.199,-0.458 0.26,-0.458C0.311,-0.458 0.351,-0.442 0.381,-0.409C0.412,-0.377 0.427,-0.332 0.427,-0.274L0.427,-0L0.379,-0L0.379,-0.256C0.379,-0.359 0.338,-0.411 0.257,-0.411C0.197,-0.411 0.148,-0.379 0.11,-0.315L0.11,-0L0.062,-0L0.062,-0.449L0.11,-0.449Z" style="fill:rgb(126,126,126);fill-rule:nonzero;"/>
            </g>
            <g transform="matrix(41.6667,0,0,41.6667,663.22,942.279)">
                <path d="M0.309,-0.42L0.309,-0.368C0.264,-0.399 0.222,-0.414 0.186,-0.414C0.159,-0.414 0.136,-0.407 0.118,-0.392C0.099,-0.377 0.09,-0.359 0.09,-0.338C0.09,-0.323 0.095,-0.309 0.107,-0.296C0.118,-0.283 0.149,-0.267 0.2,-0.247C0.251,-0.228 0.284,-0.207 0.3,-0.186C0.315,-0.165 0.323,-0.141 0.323,-0.115C0.323,-0.08 0.309,-0.051 0.281,-0.027C0.252,-0.003 0.217,0.009 0.176,0.009C0.131,0.009 0.086,-0.005 0.041,-0.032L0.041,-0.079C0.094,-0.052 0.141,-0.038 0.182,-0.038C0.21,-0.038 0.233,-0.045 0.25,-0.06C0.268,-0.075 0.277,-0.093 0.277,-0.116C0.277,-0.132 0.271,-0.146 0.26,-0.159C0.248,-0.173 0.217,-0.189 0.166,-0.209C0.115,-0.23 0.082,-0.25 0.067,-0.269C0.052,-0.289 0.044,-0.311 0.044,-0.335C0.044,-0.369 0.058,-0.398 0.086,-0.422C0.114,-0.446 0.149,-0.458 0.189,-0.458C0.226,-0.458 0.266,-0.445 0.309,-0.42Z" style="fill:rgb(126,126,126);fill-rule:nonzero;"/>
            </g>
            <g transform="matrix(41.6667,0,0,41.6667,677.97,942.279)">
                <path d="M0.121,-0.097L0.121,-0.021C0.121,0.038 0.099,0.084 0.056,0.117L0.056,0.082C0.07,0.063 0.077,0.035 0.077,-0L0.056,-0L0.056,-0.097L0.121,-0.097Z" style="fill:rgb(126,126,126);fill-rule:nonzero;"/>
            </g>
            <g transform="matrix(41.6667,0,0,41.6667,696.912,942.279)">
                <path d="M0.508,-0.34L0.564,-0.34C0.543,-0.273 0.512,-0.209 0.47,-0.147L0.609,-0L0.542,-0L0.439,-0.107C0.372,-0.03 0.294,0.009 0.204,0.009C0.151,0.009 0.108,-0.006 0.075,-0.036C0.042,-0.066 0.026,-0.105 0.026,-0.153C0.026,-0.242 0.082,-0.312 0.195,-0.361C0.138,-0.42 0.11,-0.473 0.11,-0.52C0.11,-0.562 0.125,-0.597 0.157,-0.626C0.188,-0.655 0.226,-0.669 0.272,-0.669C0.315,-0.669 0.351,-0.656 0.379,-0.629C0.407,-0.602 0.421,-0.568 0.421,-0.528C0.421,-0.456 0.373,-0.395 0.278,-0.347L0.433,-0.186C0.464,-0.232 0.489,-0.284 0.508,-0.34ZM0.244,-0.384C0.329,-0.419 0.372,-0.466 0.372,-0.523C0.372,-0.551 0.362,-0.574 0.343,-0.592C0.323,-0.611 0.299,-0.62 0.269,-0.62C0.238,-0.62 0.213,-0.611 0.192,-0.592C0.171,-0.573 0.161,-0.55 0.161,-0.523C0.161,-0.481 0.189,-0.434 0.244,-0.384ZM0.403,-0.144L0.23,-0.324C0.179,-0.302 0.142,-0.279 0.118,-0.253C0.095,-0.228 0.083,-0.197 0.083,-0.16C0.083,-0.122 0.095,-0.093 0.118,-0.072C0.141,-0.051 0.174,-0.04 0.215,-0.04C0.283,-0.04 0.346,-0.075 0.403,-0.144Z" style="fill:rgb(126,126,126);fill-rule:nonzero;"/>
            </g>
            <g transform="matrix(41.6667,0,0,41.6667,734.123,942.279)">
                <path d="M0.452,-0.682L0.452,-0.638L0.133,-0.638L0.133,-0.365L0.444,-0.365L0.444,-0.321L0.133,-0.321L0.133,-0.044L0.46,-0.044L0.46,-0L0.08,-0L0.08,-0.682L0.452,-0.682Z" style="fill:rgb(126,126,126);fill-rule:nonzero;"/>
            </g>
            <g transform="matrix(41.6667,0,0,41.6667,754.549,942.279)">
                <rect x="0.07" y="-0.682" width="0.048" height="0.682" style="fill:rgb(126,126,126);fill-rule:nonzero;"/>
            </g>
            <g transform="matrix(41.6667,0,0,41.6667,762.382,942.279)">
                <path d="M0.118,-0.682L0.118,-0.6L0.07,-0.6L0.07,-0.682L0.118,-0.682ZM0.118,-0.449L0.118,-0L0.07,-0L0.07,-0.449L0.118,-0.449Z" style="fill:rgb(126,126,126);fill-rule:nonzero;"/>
            </g>
            <g transform="matrix(41.6667,0,0,41.6667,770.215,942.279)">
                <path d="M0.309,-0.42L0.309,-0.368C0.264,-0.399 0.222,-0.414 0.186,-0.414C0.159,-0.414 0.136,-0.407 0.118,-0.392C0.099,-0.377 0.09,-0.359 0.09,-0.338C0.09,-0.323 0.095,-0.309 0.107,-0.296C0.118,-0.283 0.149,-0.267 0.2,-0.247C0.251,-0.228 0.284,-0.207 0.3,-0.186C0.315,-0.165 0.323,-0.141 0.323,-0.115C0.323,-0.08 0.309,-0.051 0.281,-0.027C0.252,-0.003 0.217,0.009 0.176,0.009C0.131,0.009 0.086,-0.005 0.041,-0.032L0.041,-0.079C0.094,-0.052 0.141,-0.038 0.182,-0.038C0.21,-0.038 0.233,-0.045 0.25,-0.06C0.268,-0.075 0.277,-0.093 0.277,-0.116C0.277,-0.132 0.271,-0.146 0.26,-0.159C0.248,-0.173 0.217,-0.189 0.166,-0.209C0.115,-0.23 0.082,-0.25 0.067,-0.269C0.052,-0.289 0.044,-0.311 0.044,-0.335C0.044,-0.369 0.058,-0.398 0.086,-0.422C0.114,-0.446 0.149,-0.458 0.189,-0.458C0.226,-0.458 0.266,-0.445 0.309,-0.42Z" style="fill:rgb(126,126,126);fill-rule:nonzero;"/>
            </g>
            <g transform="matrix(41.6667,0,0,41.6667,784.965,942.279)">
                <path d="M0.421,-0.078L0.421,-0.038C0.38,-0.007 0.349,0.009 0.33,0.009C0.319,0.009 0.311,0.005 0.307,-0.002C0.303,-0.01 0.3,-0.024 0.298,-0.047C0.251,-0.01 0.204,0.009 0.157,0.009C0.123,0.009 0.095,-0.002 0.071,-0.024C0.048,-0.047 0.036,-0.073 0.036,-0.105C0.036,-0.154 0.059,-0.192 0.104,-0.22C0.149,-0.249 0.214,-0.265 0.298,-0.269L0.298,-0.326C0.298,-0.387 0.265,-0.418 0.198,-0.418C0.156,-0.418 0.11,-0.399 0.061,-0.361L0.061,-0.41C0.112,-0.442 0.16,-0.458 0.206,-0.458C0.247,-0.458 0.28,-0.448 0.307,-0.428C0.333,-0.408 0.346,-0.379 0.346,-0.341L0.346,-0.061C0.346,-0.046 0.35,-0.038 0.357,-0.038C0.366,-0.038 0.387,-0.051 0.421,-0.078ZM0.298,-0.089L0.298,-0.229C0.236,-0.231 0.185,-0.22 0.145,-0.197C0.104,-0.173 0.084,-0.142 0.084,-0.105C0.084,-0.084 0.092,-0.067 0.109,-0.052C0.126,-0.038 0.147,-0.031 0.173,-0.031C0.214,-0.031 0.256,-0.05 0.298,-0.089Z" style="fill:rgb(126,126,126);fill-rule:nonzero;"/>
            </g>
            <g transform="matrix(41.6667,0,0,41.6667,802.747,942.279)">
                <path d="M0.062,-0.025L0.062,-0.682L0.11,-0.682L0.11,-0.385C0.158,-0.434 0.212,-0.458 0.272,-0.458C0.331,-0.458 0.379,-0.438 0.416,-0.397C0.453,-0.356 0.472,-0.303 0.472,-0.239C0.472,-0.164 0.449,-0.104 0.404,-0.059C0.358,-0.014 0.297,0.009 0.221,0.009C0.171,0.009 0.118,-0.002 0.062,-0.025ZM0.11,-0.331L0.11,-0.059C0.147,-0.045 0.184,-0.038 0.22,-0.038C0.278,-0.038 0.326,-0.057 0.364,-0.094C0.402,-0.131 0.421,-0.179 0.421,-0.236C0.421,-0.289 0.406,-0.333 0.377,-0.367C0.348,-0.401 0.311,-0.418 0.266,-0.418C0.213,-0.418 0.161,-0.389 0.11,-0.331Z" style="fill:rgb(126,126,126);fill-rule:nonzero;"/>
            </g>
            <g transform="matrix(41.6667,0,0,41.6667,823.987,942.279)">
                <path d="M0.445,-0.241L0.091,-0.241C0.09,-0.233 0.089,-0.226 0.089,-0.218C0.089,-0.168 0.107,-0.125 0.143,-0.09C0.179,-0.056 0.221,-0.038 0.27,-0.038C0.327,-0.038 0.383,-0.06 0.437,-0.105L0.437,-0.051C0.386,-0.011 0.328,0.009 0.264,0.009C0.199,0.009 0.146,-0.014 0.104,-0.059C0.061,-0.104 0.04,-0.161 0.04,-0.23C0.04,-0.296 0.06,-0.35 0.099,-0.393C0.138,-0.436 0.187,-0.458 0.246,-0.458C0.302,-0.458 0.349,-0.439 0.387,-0.4C0.426,-0.361 0.445,-0.308 0.445,-0.241ZM0.097,-0.28L0.388,-0.28C0.371,-0.367 0.324,-0.411 0.246,-0.411C0.209,-0.411 0.177,-0.4 0.151,-0.377C0.124,-0.354 0.106,-0.321 0.097,-0.28Z" style="fill:rgb(126,126,126);fill-rule:nonzero;"/>
            </g>
            <g transform="matrix(41.6667,0,0,41.6667,843.945,942.279)">
                <path d="M0.15,-0.598L0.15,-0.449L0.276,-0.449L0.276,-0.41L0.15,-0.41L0.15,-0.143C0.15,-0.1 0.153,-0.072 0.16,-0.058C0.167,-0.045 0.186,-0.038 0.217,-0.038C0.24,-0.038 0.268,-0.045 0.299,-0.06L0.299,-0.014C0.267,0.001 0.236,0.009 0.206,0.009C0.176,0.009 0.152,0 0.132,-0.017C0.112,-0.034 0.102,-0.057 0.102,-0.087L0.102,-0.41L-0.019,-0.41L-0.019,-0.449L0.102,-0.449L0.102,-0.556L0.135,-0.598L0.15,-0.598Z" style="fill:rgb(126,126,126);fill-rule:nonzero;"/>
            </g>
            <g transform="matrix(41.6667,0,0,41.6667,856.519,942.279)">
                <path d="M0.11,-0.682L0.11,-0.371L0.112,-0.371C0.149,-0.429 0.199,-0.458 0.26,-0.458C0.311,-0.458 0.351,-0.442 0.381,-0.409C0.412,-0.377 0.427,-0.332 0.427,-0.275L0.427,-0L0.379,-0L0.379,-0.256C0.379,-0.359 0.338,-0.411 0.257,-0.411C0.199,-0.411 0.15,-0.379 0.11,-0.315L0.11,-0L0.062,-0L0.062,-0.682L0.11,-0.682Z" style="fill:rgb(126,126,126);fill-rule:nonzero;"/>
            </g>
            <g transform="matrix(41.6667,0,0,41.6667,888.521,942.279)">
                <path d="M0.08,-0.682L0.222,-0.682C0.297,-0.682 0.353,-0.667 0.392,-0.635C0.43,-0.604 0.449,-0.561 0.449,-0.506C0.449,-0.44 0.417,-0.389 0.351,-0.354C0.456,-0.331 0.509,-0.274 0.509,-0.181C0.509,-0.126 0.488,-0.082 0.447,-0.049C0.406,-0.016 0.35,-0 0.28,-0L0.08,-0L0.08,-0.682ZM0.133,-0.638L0.133,-0.366L0.206,-0.366C0.33,-0.366 0.392,-0.411 0.392,-0.502C0.392,-0.593 0.329,-0.638 0.204,-0.638L0.133,-0.638ZM0.133,-0.322L0.133,-0.044L0.274,-0.044C0.332,-0.044 0.376,-0.056 0.407,-0.082C0.437,-0.107 0.452,-0.14 0.452,-0.182C0.452,-0.275 0.385,-0.322 0.251,-0.322L0.133,-0.322Z" style="fill:rgb(126,126,126);fill-rule:nonzero;"/>
            </g>
            <g transform="matrix(41.6667,0,0,41.6667,910.637,942.279)">
                <path d="M0.118,-0.682L0.118,-0.6L0.07,-0.6L0.07,-0.682L0.118,-0.682ZM0.118,-0.449L0.118,-0L0.07,-0L0.07,-0.449L0.118,-0.449Z" style="fill:rgb(126,126,126);fill-rule:nonzero;"/>
            </g>
            <g transform="matrix(41.6667,0,0,41.6667,918.469,942.279)">
                <path d="M0.107,-0.682L0.107,-0L0.059,-0L0.059,-0.682L0.107,-0.682ZM0.425,-0.449L0.179,-0.236L0.463,-0L0.397,-0L0.114,-0.236L0.362,-0.449L0.425,-0.449Z" style="fill:rgb(126,126,126);fill-rule:nonzero;"/>
            </g>
            <g transform="matrix(41.6667,0,0,41.6667,372.734,992.279)">
                <path d="M0.027,-0.355C0.027,-0.458 0.063,-0.545 0.136,-0.618C0.21,-0.691 0.297,-0.728 0.4,-0.728C0.502,-0.728 0.59,-0.691 0.663,-0.618C0.736,-0.545 0.773,-0.458 0.773,-0.355C0.773,-0.252 0.736,-0.165 0.663,-0.092C0.59,-0.018 0.502,0.018 0.4,0.018C0.297,0.018 0.21,-0.018 0.136,-0.092C0.063,-0.165 0.027,-0.252 0.027,-0.355ZM0.726,-0.355C0.726,-0.444 0.694,-0.521 0.63,-0.585C0.566,-0.649 0.489,-0.681 0.4,-0.681C0.31,-0.681 0.234,-0.649 0.17,-0.585C0.106,-0.521 0.074,-0.444 0.074,-0.355C0.074,-0.265 0.106,-0.189 0.17,-0.125C0.234,-0.061 0.31,-0.029 0.4,-0.029C0.489,-0.029 0.566,-0.061 0.63,-0.125C0.694,-0.189 0.726,-0.265 0.726,-0.355ZM0.562,-0.449L0.515,-0.437C0.492,-0.491 0.455,-0.518 0.404,-0.518C0.364,-0.518 0.331,-0.504 0.305,-0.476C0.279,-0.447 0.266,-0.41 0.266,-0.364C0.266,-0.31 0.278,-0.267 0.303,-0.235C0.327,-0.202 0.359,-0.186 0.399,-0.186C0.458,-0.186 0.5,-0.219 0.522,-0.286L0.566,-0.27C0.555,-0.231 0.535,-0.199 0.505,-0.177C0.475,-0.154 0.441,-0.142 0.402,-0.142C0.348,-0.142 0.304,-0.162 0.268,-0.203C0.233,-0.243 0.215,-0.294 0.215,-0.356C0.215,-0.414 0.232,-0.462 0.268,-0.501C0.303,-0.54 0.348,-0.559 0.405,-0.559C0.473,-0.559 0.526,-0.522 0.562,-0.449Z" style="fill:rgb(126,126,126);fill-rule:nonzero;"/>
            </g>
            <g transform="matrix(41.6667,0,0,41.6667,406.059,992.279)">
                <path d="M0.045,-0.569L0.045,-0.629C0.095,-0.67 0.148,-0.691 0.204,-0.691C0.26,-0.691 0.307,-0.672 0.346,-0.634C0.384,-0.596 0.404,-0.55 0.404,-0.495C0.404,-0.387 0.32,-0.237 0.153,-0.047L0.47,-0.047L0.47,-0L0.037,-0C0.248,-0.203 0.353,-0.368 0.353,-0.494C0.353,-0.536 0.338,-0.571 0.309,-0.6C0.28,-0.629 0.243,-0.643 0.2,-0.643C0.172,-0.643 0.146,-0.637 0.123,-0.625C0.1,-0.614 0.074,-0.595 0.045,-0.569Z" style="fill:rgb(126,126,126);fill-rule:nonzero;"/>
            </g>
            <g transform="matrix(41.6667,0,0,41.6667,426.892,992.279)">
                <path d="M0.25,-0.691C0.311,-0.691 0.363,-0.66 0.405,-0.599C0.447,-0.538 0.468,-0.451 0.468,-0.338C0.468,-0.233 0.447,-0.149 0.406,-0.086C0.365,-0.023 0.313,0.009 0.252,0.009C0.188,0.009 0.135,-0.022 0.094,-0.084C0.053,-0.146 0.032,-0.228 0.032,-0.329C0.032,-0.455 0.054,-0.547 0.098,-0.604C0.142,-0.662 0.193,-0.691 0.25,-0.691ZM0.248,-0.039C0.299,-0.039 0.34,-0.068 0.371,-0.125C0.402,-0.182 0.417,-0.255 0.417,-0.343C0.417,-0.429 0.402,-0.5 0.372,-0.557C0.342,-0.615 0.301,-0.643 0.25,-0.643C0.202,-0.643 0.162,-0.615 0.13,-0.559C0.099,-0.503 0.083,-0.43 0.083,-0.341C0.083,-0.251 0.098,-0.178 0.129,-0.122C0.16,-0.067 0.2,-0.039 0.248,-0.039Z" style="fill:rgb(126,126,126);fill-rule:nonzero;"/>
            </g>
            <g transform="matrix(41.6667,0,0,41.6667,447.726,992.279)">
                <path d="M0.045,-0.569L0.045,-0.629C0.095,-0.67 0.148,-0.691 0.204,-0.691C0.26,-0.691 0.307,-0.672 0.346,-0.634C0.384,-0.596 0.404,-0.55 0.404,-0.495C0.404,-0.387 0.32,-0.237 0.153,-0.047L0.47,-0.047L0.47,-0L0.037,-0C0.248,-0.203 0.353,-0.368 0.353,-0.494C0.353,-0.536 0.338,-0.571 0.309,-0.6C0.28,-0.629 0.243,-0.643 0.2,-0.643C0.172,-0.643 0.146,-0.637 0.123,-0.625C0.1,-0.614 0.074,-0.595 0.045,-0.569Z" style="fill:rgb(126,126,126);fill-rule:nonzero;"/>
            </g>
            <g transform="matrix(41.6667,0,0,41.6667,468.559,992.279)">
                <path d="M0.045,-0.569L0.045,-0.629C0.095,-0.67 0.148,-0.691 0.204,-0.691C0.26,-0.691 0.307,-0.672 0.346,-0.634C0.384,-0.596 0.404,-0.55 0.404,-0.495C0.404,-0.387 0.32,-0.237 0.153,-0.047L0.47,-0.047L0.47,-0L0.037,-0C0.248,-0.203 0.353,-0.368 0.353,-0.494C0.353,-0.536 0.338,-0.571 0.309,-0.6C0.28,-0.629 0.243,-0.643 0.2,-0.643C0.172,-0.643 0.146,-0.637 0.123,-0.625C0.1,-0.614 0.074,-0.595 0.045,-0.569Z" style="fill:rgb(126,126,126);fill-rule:nonzero;"/>
            </g>
            <g transform="matrix(41.6667,0,0,41.6667,500.969,992.279)">
                <path d="M0.64,-0.682L0.64,-0L0.587,-0L0.587,-0.323L0.132,-0.323L0.132,-0L0.079,-0L0.079,-0.682L0.132,-0.682L0.132,-0.367L0.587,-0.367L0.587,-0.682L0.64,-0.682Z" style="fill:rgb(126,126,126);fill-rule:nonzero;"/>
            </g>
            <g transform="matrix(41.6667,0,0,41.6667,530.937,992.279)">
                <path d="M0.421,-0.078L0.421,-0.038C0.38,-0.007 0.349,0.009 0.33,0.009C0.319,0.009 0.311,0.005 0.307,-0.002C0.303,-0.01 0.3,-0.024 0.298,-0.047C0.251,-0.01 0.204,0.009 0.157,0.009C0.123,0.009 0.095,-0.002 0.071,-0.024C0.048,-0.047 0.036,-0.073 0.036,-0.105C0.036,-0.154 0.059,-0.192 0.104,-0.22C0.149,-0.249 0.214,-0.265 0.298,-0.269L0.298,-0.326C0.298,-0.387 0.265,-0.418 0.198,-0.418C0.156,-0.418 0.11,-0.399 0.061,-0.361L0.061,-0.41C0.112,-0.442 0.16,-0.458 0.206,-0.458C0.247,-0.458 0.28,-0.448 0.307,-0.428C0.333,-0.408 0.346,-0.379 0.346,-0.341L0.346,-0.061C0.346,-0.046 0.35,-0.038 0.357,-0.038C0.366,-0.038 0.387,-0.051 0.421,-0.078ZM0.298,-0.089L0.298,-0.229C0.236,-0.231 0.185,-0.22 0.145,-0.197C0.104,-0.173 0.084,-0.142 0.084,-0.105C0.084,-0.084 0.092,-0.067 0.109,-0.052C0.126,-0.038 0.147,-0.031 0.173,-0.031C0.214,-0.031 0.256,-0.05 0.298,-0.089Z" style="fill:rgb(126,126,126);fill-rule:nonzero;"/>
            </g>
            <g transform="matrix(41.6667,0,0,41.6667,548.718,992.279)">
                <path d="M0.373,-0.405L0.345,-0.36C0.308,-0.394 0.278,-0.411 0.255,-0.411C0.21,-0.411 0.162,-0.368 0.111,-0.282L0.111,-0L0.063,-0L0.063,-0.449L0.111,-0.449L0.111,-0.331L0.113,-0.331C0.167,-0.416 0.219,-0.458 0.27,-0.458C0.299,-0.458 0.334,-0.44 0.373,-0.405Z" style="fill:rgb(126,126,126);fill-rule:nonzero;"/>
            </g>
            <g transform="matrix(41.6667,0,0,41.6667,562.594,992.279)">
                <path d="M0.062,-0.025L0.062,-0.682L0.11,-0.682L0.11,-0.385C0.158,-0.434 0.212,-0.458 0.272,-0.458C0.331,-0.458 0.379,-0.438 0.416,-0.397C0.453,-0.356 0.472,-0.303 0.472,-0.239C0.472,-0.164 0.449,-0.104 0.404,-0.059C0.358,-0.014 0.297,0.009 0.221,0.009C0.171,0.009 0.118,-0.002 0.062,-0.025ZM0.11,-0.331L0.11,-0.059C0.147,-0.045 0.184,-0.038 0.22,-0.038C0.278,-0.038 0.326,-0.057 0.364,-0.094C0.402,-0.131 0.421,-0.179 0.421,-0.236C0.421,-0.289 0.406,-0.333 0.377,-0.367C0.348,-0.401 0.311,-0.418 0.266,-0.418C0.213,-0.418 0.161,-0.389 0.11,-0.331Z" style="fill:rgb(126,126,126);fill-rule:nonzero;"/>
            </g>
            <g transform="matrix(41.6667,0,0,41.6667,583.834,992.279)">
                <path d="M0.445,-0.241L0.091,-0.241C0.09,-0.233 0.089,-0.226 0.089,-0.218C0.089,-0.168 0.107,-0.125 0.143,-0.09C0.179,-0.056 0.221,-0.038 0.27,-0.038C0.327,-0.038 0.383,-0.06 0.437,-0.105L0.437,-0.051C0.386,-0.011 0.328,0.009 0.264,0.009C0.199,0.009 0.146,-0.014 0.104,-0.059C0.061,-0.104 0.04,-0.161 0.04,-0.23C0.04,-0.296 0.06,-0.35 0.099,-0.393C0.138,-0.436 0.187,-0.458 0.246,-0.458C0.302,-0.458 0.349,-0.439 0.387,-0.4C0.426,-0.361 0.445,-0.308 0.445,-0.241ZM0.097,-0.28L0.388,-0.28C0.371,-0.367 0.324,-0.411 0.246,-0.411C0.209,-0.411 0.177,-0.4 0.151,-0.377C0.124,-0.354 0.106,-0.321 0.097,-0.28Z" style="fill:rgb(126,126,126);fill-rule:nonzero;"/>
            </g>
            <g transform="matrix(41.6667,0,0,41.6667,603.792,992.279)">
                <path d="M0.373,-0.405L0.345,-0.36C0.308,-0.394 0.278,-0.411 0.255,-0.411C0.21,-0.411 0.162,-0.368 0.111,-0.282L0.111,-0L0.063,-0L0.063,-0.449L0.111,-0.449L0.111,-0.331L0.113,-0.331C0.167,-0.416 0.219,-0.458 0.27,-0.458C0.299,-0.458 0.334,-0.44 0.373,-0.405Z" style="fill:rgb(126,126,126);fill-rule:nonzero;"/>
            </g>
            <g transform="matrix(41.6667,0,0,41.6667,617.668,992.279)">
                <path d="M0.309,-0.42L0.309,-0.368C0.264,-0.399 0.222,-0.414 0.186,-0.414C0.159,-0.414 0.136,-0.407 0.118,-0.392C0.099,-0.377 0.09,-0.359 0.09,-0.338C0.09,-0.323 0.095,-0.309 0.107,-0.296C0.118,-0.283 0.149,-0.267 0.2,-0.247C0.251,-0.228 0.284,-0.207 0.3,-0.186C0.315,-0.165 0.323,-0.141 0.323,-0.115C0.323,-0.08 0.309,-0.051 0.281,-0.027C0.252,-0.003 0.217,0.009 0.176,0.009C0.131,0.009 0.086,-0.005 0.041,-0.032L0.041,-0.079C0.094,-0.052 0.141,-0.038 0.182,-0.038C0.21,-0.038 0.233,-0.045 0.25,-0.06C0.268,-0.075 0.277,-0.093 0.277,-0.116C0.277,-0.132 0.271,-0.146 0.26,-0.159C0.248,-0.173 0.217,-0.189 0.166,-0.209C0.115,-0.23 0.082,-0.25 0.067,-0.269C0.052,-0.289 0.044,-0.311 0.044,-0.335C0.044,-0.369 0.058,-0.398 0.086,-0.422C0.114,-0.446 0.149,-0.458 0.189,-0.458C0.226,-0.458 0.266,-0.445 0.309,-0.42Z" style="fill:rgb(126,126,126);fill-rule:nonzero;"/>
            </g>
            <g transform="matrix(41.6667,0,0,41.6667,643.994,992.279)">
                <path d="M0.08,-0.682L0.222,-0.682C0.297,-0.682 0.353,-0.667 0.392,-0.635C0.43,-0.604 0.449,-0.561 0.449,-0.506C0.449,-0.44 0.417,-0.389 0.351,-0.354C0.456,-0.331 0.509,-0.274 0.509,-0.181C0.509,-0.126 0.488,-0.082 0.447,-0.049C0.406,-0.016 0.35,-0 0.28,-0L0.08,-0L0.08,-0.682ZM0.133,-0.638L0.133,-0.366L0.206,-0.366C0.33,-0.366 0.392,-0.411 0.392,-0.502C0.392,-0.593 0.329,-0.638 0.204,-0.638L0.133,-0.638ZM0.133,-0.322L0.133,-0.044L0.274,-0.044C0.332,-0.044 0.376,-0.056 0.407,-0.082C0.437,-0.107 0.452,-0.14 0.452,-0.182C0.452,-0.275 0.385,-0.322 0.251,-0.322L0.133,-0.322Z" style="fill:rgb(126,126,126);fill-rule:nonzero;"/>
            </g>
            <g transform="matrix(41.6667,0,0,41.6667,666.109,992.279)">
                <path d="M0.118,-0.682L0.118,-0.6L0.07,-0.6L0.07,-0.682L0.118,-0.682ZM0.118,-0.449L0.118,-0L0.07,-0L0.07,-0.449L0.118,-0.449Z" style="fill:rgb(126,126,126);fill-rule:nonzero;"/>
            </g>
            <g transform="matrix(41.6667,0,0,41.6667,673.942,992.279)">
                <path d="M0.107,-0.682L0.107,-0L0.059,-0L0.059,-0.682L0.107,-0.682ZM0.425,-0.449L0.179,-0.236L0.463,-0L0.397,-0L0.114,-0.236L0.362,-0.449L0.425,-0.449Z" style="fill:rgb(126,126,126);fill-rule:nonzero;"/>
            </g>
            <g transform="matrix(41.6667,0,0,41.6667,703.3,992.279)">
                <path d="M0.132,-0.682L0.132,-0.044L0.469,-0.044L0.469,-0L0.079,-0L0.079,-0.682L0.132,-0.682Z" style="fill:rgb(126,126,126);fill-rule:nonzero;"/>
            </g>
            <g transform="matrix(41.6667,0,0,41.6667,722.852,992.279)">
                <path d="M0.132,-0.682L0.132,-0.044L0.469,-0.044L0.469,-0L0.079,-0L0.079,-0.682L0.132,-0.682Z" style="fill:rgb(126,126,126);fill-rule:nonzero;"/>
            </g>
            <g transform="matrix(41.6667,0,0,41.6667,742.403,992.279)">
                <path d="M0.647,-0.634L0.647,-0.576C0.564,-0.62 0.483,-0.642 0.404,-0.642C0.319,-0.642 0.248,-0.613 0.191,-0.556C0.134,-0.498 0.106,-0.426 0.106,-0.34C0.106,-0.253 0.135,-0.181 0.192,-0.125C0.249,-0.068 0.322,-0.04 0.411,-0.04C0.485,-0.04 0.566,-0.063 0.654,-0.11L0.654,-0.055C0.573,-0.013 0.493,0.009 0.412,0.009C0.308,0.009 0.222,-0.024 0.153,-0.091C0.083,-0.158 0.049,-0.241 0.049,-0.34C0.049,-0.44 0.084,-0.523 0.155,-0.59C0.225,-0.657 0.31,-0.691 0.407,-0.691C0.484,-0.691 0.564,-0.672 0.647,-0.634Z" style="fill:rgb(126,126,126);fill-rule:nonzero;"/>
            </g>
        </g>
    </g>
</svg>
